<?xml version="1.0" encoding="utf-8"?>
<!-- Generator: Adobe Illustrator 25.1.0, SVG Export Plug-In . SVG Version: 6.00 Build 0)  -->
<svg version="1.1" id="Capa_1" xmlns="http://www.w3.org/2000/svg" xmlns:xlink="http://www.w3.org/1999/xlink" x="0px" y="0px"
	 viewBox="0 0 512 512" style="enable-background:new 0 0 512 512;" xml:space="preserve">
<style type="text/css">
	.st0{fill:#E74C3C;}
	.st1{fill:#C0392B;}
	.st2{fill:#ECF0F1;}
	.st3{fill:#5C626B;}
	.st4{fill:#535860;}
	.st5{fill:#DFE0E0;}
	.st6{fill:#C9CACA;}
	.st7{fill:#FBE067;}
	.st8{fill:#E7CE5F;}
	.st9{fill:#CB556A;}
	.st10{fill:#494F57;}
	.st11{fill:#E15F76;}
	.st12{fill:#F7C2AD;}
</style>
<g id="XMLID_1_">
	<path id="XMLID_16_" class="st0" d="M52.7,18.5c-18.8,0-33.6,14.8-33.6,33.6v50.7v185.2v50.7v17.1c0,18.8,14.8,33.6,33.6,33.6h33.6
		h202.3h33.6c18.8,0,33.6-14.8,33.6-33.6v-17.1v-50.7V102.8V52.1c0-18.8-14.8-33.6-33.6-33.6h-33.6H86.3H52.7z M44.2,52.1h17.1
		c4.6,0,8.6,4,8.6,8.6v17.1c0,4.6-4,8.6-8.6,8.6H44.2c-4.6,0-8.6-4-8.6-8.6V60.7C35.6,56.1,39.6,52.1,44.2,52.1z M313.7,52.1h17.1
		c4.6,0,8.6,4,8.6,8.6v17.1c0,4.6-4,8.6-8.6,8.6h-17.1c-4.6,0-8.6-4-8.6-8.6V60.7C305.2,56.1,308.6,52.1,313.7,52.1z M44.2,102.8
		h17.1c4.6,0,8.6,4,8.6,8.6v17.1c0,4.6-4,8.6-8.6,8.6H44.2c-4.6,0-8.6-4-8.6-8.6v-17.1C35.6,106.3,39.6,102.8,44.2,102.8z
		 M313.7,102.8h17.1c4.6,0,8.6,4,8.6,8.6v17.1c0,4.6-4,8.6-8.6,8.6h-17.1c-4.6,0-8.6-4-8.6-8.6v-17.1
		C305.2,106.3,308.6,102.8,313.7,102.8z M44.2,153h17.1c4.6,0,8.6,4,8.6,8.6v17.1c0,4.6-4,8.6-8.6,8.6H44.2c-4.6,0-8.6-4-8.6-8.6
		v-17.1C35.6,157,39.6,153,44.2,153z M313.7,153h17.1c4.6,0,8.6,4,8.6,8.6v17.1c0,4.6-4,8.6-8.6,8.6h-17.1c-4.6,0-8.6-4-8.6-8.6
		v-17.1C305.2,157,308.6,153,313.7,153z M44.2,203.7h17.1c4.6,0,8.6,4,8.6,8.6v17.1c0,4.6-4,8.6-8.6,8.6H44.2c-4.6,0-8.6-4-8.6-8.6
		v-17.1C35.6,207.7,39.6,203.7,44.2,203.7z M313.7,203.7h17.1c4.6,0,8.6,4,8.6,8.6v17.1c0,4.6-4,8.6-8.6,8.6h-17.1
		c-4.6,0-8.6-4-8.6-8.6v-17.1C305.2,207.7,308.6,203.7,313.7,203.7z M44.2,254.4h17.1c4.6,0,8.6,4,8.6,8.6v17.1c0,4.6-4,8.6-8.6,8.6
		H44.2c-4.6,0-8.6-4-8.6-8.6V263C35.6,257.8,39.6,254.4,44.2,254.4z M313.7,254.4h17.1c4.6,0,8.6,4,8.6,8.6v17.1
		c0,4.6-4,8.6-8.6,8.6h-17.1c-4.6,0-8.6-4-8.6-8.6V263C305.2,257.8,308.6,254.4,313.7,254.4z M44.2,304.6h17.1c4.6,0,8.6,4,8.6,8.6
		v17.1c0,4.6-4,8.6-8.6,8.6H44.2c-4.6,0-8.6-4-8.6-8.6v-17.1C35.6,308.6,39.6,304.6,44.2,304.6z M313.7,304.6h17.1
		c4.6,0,8.6,4,8.6,8.6v17.1c0,4.6-4,8.6-8.6,8.6h-17.1c-4.6,0-8.6-4-8.6-8.6v-17.1C305.2,308.6,308.6,304.6,313.7,304.6z"/>
	<path id="XMLID_22_" class="st1" d="M19.1,203.7v84.3v50.7v17.1c0,18.3,14.8,33.6,33.6,33.6h33.6h202.3h33.6
		c18.8,0,33.6-15.4,33.6-33.6v-17.1v-50.7v-84.3h-25.1c4.6,0,8.6,3.4,8.6,8.6v17.1c0,3.4-4,8.6-8.6,8.6h-17.1
		c-4.6,0-8.6-5.1-8.6-8.6v-17.1c0-5.1,4-8.6,8.6-8.6h-253c4.6,0,8.6,3.4,8.6,8.6v17.1c0,3.4-4,8.6-8.6,8.6H43.6
		c-4.6,0-8.6-5.1-8.6-8.6v-17.1c0-5.1,4-8.6,8.6-8.6L19.1,203.7L19.1,203.7z M44.2,254.4h17.1c4.6,0,8.6,3.4,8.6,8.6v17.1
		c0,3.4-4,8.6-8.6,8.6H44.2c-4.6,0-8.6-5.1-8.6-8.6V263C35.6,257.8,39.6,254.4,44.2,254.4z M313.7,254.4h17.1c4.6,0,8.6,3.4,8.6,8.6
		v17.1c0,3.4-4,8.6-8.6,8.6h-17.1c-4.6,0-8.6-5.1-8.6-8.6V263C305.2,257.8,308.6,254.4,313.7,254.4z M44.2,304.6h17.1
		c4.6,0,8.6,3.4,8.6,8.6v17.1c0,3.4-4,8.6-8.6,8.6H44.2c-4.6,0-8.6-5.1-8.6-8.6v-17.1C35.6,308,39.6,304.6,44.2,304.6z M313.7,304.6
		h17.1c4.6,0,8.6,3.4,8.6,8.6v17.1c0,3.4-4,8.6-8.6,8.6h-17.1c-4.6,0-8.6-5.1-8.6-8.6v-17.1C305.2,308,308.6,304.6,313.7,304.6z"/>
	<polygon id="XMLID_23_" class="st2" points="153.6,253.3 153.6,151.8 237.9,202.6 	"/>
</g>
<path class="st3" d="M251.2,376.3l-19,19l-35.8-35.8c-5.2-5.2-5.2-13.7,0-19c5.2-5.2,13.7-5.2,19,0L251.2,376.3z"/>
<path class="st4" d="M202.4,337c-2.2,0.6-4.3,1.7-6,3.5c-5.2,5.2-5.2,13.7,0,19l35.8,35.8l9.5-9.5L205.9,350
	C202.3,346.5,201.2,341.5,202.4,337z"/>
<path class="st5" d="M232.1,395.3l19-19l51.8,51.8l-19,19L232.1,395.3z"/>
<path class="st6" d="M232.1,395.3l9.5-9.5l51.8,51.8l-9.5,9.5L232.1,395.3z"/>
<path class="st7" d="M267.8,376.4L232.2,412c-1.1,1.1-2.9,1.1-4,0l-12.7-12.7c-1.1-1.1-1.1-2.9,0-4l35.6-35.6c1.1-1.1,2.9-1.1,4,0
	l12.7,12.7C268.8,373.5,268.8,375.3,267.8,376.4z"/>
<path class="st8" d="M241.4,398.9l-12.7-12.7c-1.1-1.1-1.1-2.9,0-4l-13.1,13.1c-1.1,1.1-1.1,2.9,0,4l12.7,12.7c1.1,1.1,2.9,1.1,4,0
	l13.1-13.1C244.2,399.9,242.4,399.9,241.4,398.9z"/>
<path class="st4" d="M473,337c2.2,0.6,4.3,1.7,6,3.5c5.2,5.2,5.2,13.7,0,19l-35.8,35.8l-9.5-9.5l35.8-35.8
	C473.1,346.5,474.2,341.5,473,337z"/>
<path class="st8" d="M434.1,398.9l12.7-12.7c1.1-1.1,1.1-2.9,0-4l13.1,13.1c1.1,1.1,1.1,2.9,0,4L447.2,412c-1.1,1.1-2.9,1.1-4,0
	l-13.1-13.1C431.3,399.9,433,399.9,434.1,398.9z"/>
<path class="st4" d="M347.4,384.5c-3.1-0.3-6.4-0.5-9.6-0.5c-56.6,0-102.5,45.9-102.5,102.5h19.3
	C254.4,433.1,295.3,389.3,347.4,384.5z"/>
<path class="st9" d="M311.8,394.4l-5.6-5.6c-8.2,2.7-16.1,6.4-23.2,10.8l8.1,8.1C297.5,402.6,304.4,398.1,311.8,394.4z"/>
<path class="st4" d="M246.1,290.7c0-57.7,44.4-105.1,100.9-109.7c-3-0.3-6.1-0.4-9.2-0.4c-60.8,0-110.1,49.3-110.1,110.1
	S277,400.8,337.8,400.8c3.1,0,6.2-0.1,9.2-0.4C290.5,395.7,246.1,348.4,246.1,290.7z"/>
<path class="st9" d="M240.3,281.6c1-12,3.9-23.5,8.4-34.1c1.1-2.7,3.8-4.5,6.8-4.5H237c-2.9,0-5.6,1.7-6.8,4.5
	c-4.6,10.6-7.4,22.1-8.4,34.1c-0.3,4.3,3.1,7.9,7.4,7.9h18.5C243.3,289.5,239.9,285.8,240.3,281.6z"/>
<g>
	<path class="st3" d="M424.3,376.3l19,19l35.8-35.8c5.2-5.2,5.2-13.7,0-19c-5.2-5.2-13.7-5.2-19,0L424.3,376.3z"/>
	<path class="st5" d="M391.5,447.1l-18.9-19l51.8-51.8l19,19L391.5,447.1z"/>
	<path class="st6" d="M382,437.6l51.8-51.8l9.5,9.5l-51.8,51.8L382,437.6z"/>
	<path class="st7" d="M407.7,376.4l35.6,35.6c1.1,1.1,2.9,1.1,4,0l12.7-12.7c1.1-1.1,1.1-2.9,0-4l-35.6-35.6c-1.1-1.1-2.9-1.1-4,0
		l-12.7,12.7C406.6,373.5,406.6,375.3,407.7,376.4z"/>
	<path class="st10" d="M235.2,486.5c0-56.6,45.9-102.5,102.5-102.5s102.5,45.9,102.5,102.5H235.2z"/>
	<path class="st4" d="M440.2,486.5H271.6l97.6-97.6C410.4,402.2,440.2,440.8,440.2,486.5z"/>
	<path class="st9" d="M305.7,486.5h-34.1l97.6-97.6c8.2,2.7,16.1,6.4,23.2,10.8L305.7,486.5z"/>
	<path class="st3" d="M235.2,486.5h168.6l-97.6-97.6C265.1,402.2,235.2,440.8,235.2,486.5z"/>
	<path class="st11" d="M369.7,486.5h34.1l-97.6-97.6c-8.2,2.7-16.1,6.4-23.2,10.8L369.7,486.5z"/>
	<path class="st3" d="M447.9,290.7c0,60.8-49.3,110.1-110.1,110.1s-110.1-49.3-110.1-110.1S277,180.6,337.8,180.6
		S447.9,229.8,447.9,290.7z"/>
	<path class="st4" d="M227.6,290.7c0,2.7,0.1,5.4,0.3,8c0.4,0,0.9,0.1,1.3,0.1h217.1c0.4,0,0.9,0,1.3-0.1c0.2-2.7,0.3-5.3,0.3-8
		c0-8.4-0.9-16.5-2.7-24.4H230.3C228.5,274.1,227.6,282.3,227.6,290.7z"/>
	<path class="st12" d="M378.1,337.5l-13.7-5.7c-17-7.1-36.2-7.1-53.2,0l-13.7,5.7c-16.4,6.8-34.5-5.2-34.5-23c0-13.8,11.2-25,25-25
		h99.9c13.8,0,25,11.2,25,25C412.6,332.2,394.5,344.4,378.1,337.5z"/>
	<path class="st11" d="M229.1,289.5h217.1c4.3,0,7.7-3.6,7.4-7.9c-1-12-3.9-23.5-8.4-34.1c-1.1-2.7-3.8-4.5-6.8-4.5H237
		c-2.9,0-5.6,1.7-6.8,4.5c-4.6,10.6-7.4,22.1-8.4,34.1C221.5,285.8,224.8,289.5,229.1,289.5z"/>
	<g>
		<path class="st10" d="M208.5,352.7l-9.5,9.5l6.6,6.6l9.5-9.5c1.8-1.8,1.8-4.8,0-6.6S210.3,350.8,208.5,352.7z"/>
		<path class="st10" d="M219.4,363.5l-9.5,9.5l6.6,6.6l9.4-9.5c1.8-1.8,1.8-4.8,0-6.6C224.1,361.7,221.2,361.7,219.4,363.5z"/>
		<path class="st10" d="M466.9,352.7c-1.8-1.8-4.8-1.8-6.6,0c-1.8,1.8-1.8,4.8,0,6.6l9.5,9.5l6.6-6.6L466.9,352.7z"/>
		<path class="st10" d="M456,363.5c-1.8-1.8-4.8-1.8-6.6,0c-1.8,1.8-1.8,4.8,0,6.6l9.5,9.5l6.6-6.6L456,363.5z"/>
		<path class="st10" d="M377,317.4c-2.5,0-4.5-2-4.5-4.5v-7c0-2.5,2-4.5,4.5-4.5s4.5,2,4.5,4.5v7C381.4,315.4,379.4,317.4,377,317.4
			z"/>
		<path class="st10" d="M298.5,317.4c-2.5,0-4.5-2-4.5-4.5v-7c0-2.5,2-4.5,4.5-4.5s4.5,2,4.5,4.5v7C303,315.4,301,317.4,298.5,317.4
			z"/>
	</g>
</g>
</svg>
